<?xml version="1.0" standalone="no"?>
<!DOCTYPE svg PUBLIC "-//W3C//DTD SVG 20010904//EN"
 "http://www.w3.org/TR/2001/REC-SVG-20010904/DTD/svg10.dtd">
<svg version="1.0" xmlns="http://www.w3.org/2000/svg"
 width="2401.000000pt" height="2401.000000pt" viewBox="0 0 2401.000000 2401.000000"
 preserveAspectRatio="xMidYMid meet">
<metadata>
Created by potrace 1.14, written by Peter Selinger 2001-2017
</metadata>
<g transform="translate(0.000000,2401.000000) scale(0.100000,-0.100000)"
fill="#000000" stroke="none">
<path d="M12072 23148 c-67 -7 -195 -52 -213 -75 -6 -7 -17 -13 -23 -13 -21 0
-144 -120 -184 -179 -22 -33 -54 -95 -71 -138 -18 -43 -36 -87 -41 -98 -5 -11
-59 -148 -121 -305 -61 -157 -144 -368 -184 -470 -40 -102 -107 -270 -148
-375 -41 -104 -195 -496 -342 -870 -148 -374 -294 -745 -325 -825 -195 -496
-302 -768 -309 -785 -5 -11 -24 -58 -41 -105 -18 -47 -39 -98 -46 -115 -7 -16
-113 -284 -234 -595 -122 -311 -264 -673 -316 -805 -52 -132 -99 -249 -104
-260 -5 -11 -24 -60 -43 -110 -19 -49 -38 -99 -42 -110 -5 -11 -9 -22 -10 -25
-1 -3 -9 -22 -18 -44 -9 -21 -17 -42 -17 -47 0 -5 -5 -17 -10 -27 -6 -9 -49
-116 -96 -237 -137 -350 -274 -698 -283 -720 -5 -11 -41 -103 -81 -205 -39
-102 -75 -194 -80 -205 -5 -11 -29 -72 -54 -135 -87 -225 -257 -655 -266 -675
-10 -22 -94 -237 -95 -245 -1 -3 -9 -22 -18 -44 -9 -21 -17 -40 -17 -42 0 -2
-47 -121 -104 -266 -57 -145 -170 -432 -251 -638 -80 -206 -151 -384 -155
-395 -5 -11 -57 -141 -115 -290 -58 -148 -110 -279 -115 -290 -4 -11 -45 -112
-88 -225 -139 -355 -272 -694 -281 -715 -5 -11 -25 -60 -44 -110 -20 -49 -90
-229 -157 -399 -67 -170 -137 -350 -156 -400 -20 -50 -39 -100 -44 -111 -5
-11 -48 -119 -95 -240 -47 -121 -90 -229 -95 -240 -5 -11 -30 -74 -55 -140
-25 -66 -50 -129 -55 -140 -5 -11 -128 -324 -274 -695 -306 -780 -529 -1346
-541 -1375 -5 -11 -9 -22 -9 -25 -2 -6 -105 -268 -117 -295 -4 -11 -22 -56
-39 -100 -17 -44 -35 -89 -40 -100 -5 -11 -21 -49 -34 -85 -26 -71 -211 -543
-226 -575 -4 -11 -69 -175 -144 -365 -74 -190 -141 -358 -147 -375 -7 -16 -13
-32 -13 -35 -2 -7 -195 -496 -211 -535 -13 -30 -41 -101 -128 -325 -60 -152
-232 -589 -365 -925 -58 -148 -107 -272 -108 -275 0 -3 -6 -18 -13 -35 -6 -16
-34 -88 -62 -160 -28 -71 -57 -143 -64 -160 -7 -16 -49 -124 -95 -240 -128
-327 -140 -358 -156 -392 -8 -17 -14 -34 -14 -38 0 -4 -6 -21 -14 -38 -8 -18
-71 -178 -141 -357 -116 -295 -135 -346 -152 -414 -11 -44 -10 -197 2 -253 53
-246 237 -434 483 -495 35 -8 778 -11 2868 -12 l2822 -1 -48 52 c-51 55 -101
148 -120 222 -12 45 -16 168 -7 206 22 88 82 204 126 241 19 17 19 23 6 129
-11 94 -53 214 -111 323 -119 224 -351 437 -638 583 -47 24 -88 50 -91 57 -23
60 -23 565 1 685 2 12 6 42 9 67 36 298 180 702 365 1020 123 213 366 544 535
726 283 309 668 685 1009 989 6 6 68 62 136 125 69 63 147 135 174 160 77 71
456 450 511 511 308 342 499 610 642 900 101 204 182 440 208 599 3 19 8 42
10 50 2 8 7 35 10 60 l6 45 -32 -55 c-145 -250 -477 -514 -829 -660 -115 -48
-292 -90 -400 -96 -87 -5 -179 -15 -270 -30 -71 -11 -217 -67 -294 -112 -80
-48 -188 -144 -243 -217 -48 -64 -104 -159 -187 -320 -112 -217 -164 -280
-263 -318 -52 -20 -157 -17 -228 8 -67 22 -236 23 -345 1 -8 -1 -33 -6 -55
-10 -22 -5 -112 -25 -200 -46 -147 -35 -221 -51 -300 -65 -16 -3 -65 -5 -108
-6 -75 0 -80 1 -122 35 -23 20 -59 59 -78 89 -45 68 -137 236 -137 252 0 6 -4
15 -9 20 -9 10 -40 82 -161 375 -94 228 -124 310 -166 455 -60 208 -62 347 -7
464 32 69 47 89 198 271 66 80 130 159 142 175 12 17 38 53 59 80 21 28 88
124 149 215 108 162 192 320 340 640 162 350 167 362 200 440 15 36 35 83 45
105 31 70 97 267 120 360 27 110 32 235 15 335 -17 99 -17 244 1 322 29 127
93 317 149 443 12 28 46 104 76 170 55 125 252 521 340 685 28 52 73 138 101
190 28 52 70 130 94 172 24 43 44 81 44 87 0 13 -92 100 -195 182 -197 158
-445 299 -610 346 -124 35 -244 44 -299 23 -16 -6 -30 -9 -32 -8 -5 6 83 105
196 218 253 256 536 466 894 664 66 36 122 66 125 66 4 0 28 12 55 26 134 72
459 200 689 273 228 73 539 147 777 186 25 4 52 8 60 10 18 3 102 15 145 20
17 2 46 6 65 9 19 3 65 8 101 11 36 4 79 8 95 10 103 12 319 20 574 20 303 0
424 -7 640 -32 30 -4 66 -7 80 -9 29 -2 93 -11 170 -24 30 -5 71 -12 90 -15
565 -93 1162 -336 1460 -594 l35 -30 -71 4 c-85 5 -153 -10 -289 -63 -55 -21
-127 -44 -160 -51 -33 -8 -73 -16 -90 -20 -16 -4 -95 -8 -175 -10 -80 -2 -147
-5 -149 -7 -7 -6 140 -70 189 -82 82 -20 173 -26 325 -23 374 8 549 4 641 -12
267 -49 499 -181 739 -422 186 -185 357 -425 566 -793 23 -40 24 -45 2 -38
-10 3 -36 7 -58 11 -65 9 -98 16 -105 20 -30 19 -364 25 -575 10 -220 -15
-380 -9 -525 20 -88 17 -178 39 -202 50 -10 4 -18 5 -18 2 0 -4 110 -88 178
-135 89 -62 280 -139 407 -163 84 -16 87 -16 240 -33 22 -3 96 -7 165 -11 146
-6 255 -14 290 -20 14 -2 50 -7 80 -10 138 -16 284 -67 371 -131 l48 -35 -43
123 c-40 113 -134 367 -170 463 -8 22 -63 166 -121 320 -105 277 -175 459
-240 625 -19 47 -99 254 -179 460 -81 206 -150 384 -155 395 -6 11 -71 178
-146 370 -184 470 -421 1070 -444 1125 -11 25 -137 342 -281 705 -291 736
-273 691 -288 725 -6 14 -129 320 -272 680 -144 360 -265 664 -270 675 -4 11
-15 36 -23 55 -8 19 -45 112 -82 205 -37 94 -73 184 -80 200 -7 17 -59 145
-115 285 -56 140 -144 359 -195 485 -51 127 -186 462 -300 745 -114 283 -213
529 -220 545 -7 17 -45 111 -85 210 -39 99 -75 189 -80 200 -5 11 -19 45 -31
75 -12 30 -27 69 -34 85 -7 17 -45 111 -85 210 -89 223 -104 248 -205 350
-171 172 -386 256 -593 233z"/>
<path d="M13340 14444 c-372 -65 -866 -272 -1159 -488 -172 -125 -310 -274
-375 -403 -32 -64 -27 -65 82 -23 119 46 253 138 581 397 332 262 607 410 896
482 81 20 183 37 198 33 5 -1 6 2 3 7 -8 13 -138 10 -226 -5z"/>
<path d="M13221 14173 c-60 -62 -86 -98 -123 -173 -44 -89 -61 -137 -118 -330
-58 -194 -173 -355 -350 -488 -97 -73 -100 -75 -70 -64 95 36 244 137 335 226
156 154 228 301 360 731 21 66 44 132 51 148 26 49 -5 31 -85 -50z"/>
<path d="M15666 11855 c32 -131 146 -281 282 -371 108 -72 361 -174 527 -212
167 -39 377 -108 470 -155 64 -32 170 -102 215 -143 38 -35 41 -36 36 -13 -3
13 -19 107 -36 208 -16 101 -35 190 -40 196 -6 7 -66 31 -133 53 -110 37 -209
59 -537 122 -173 33 -342 78 -415 109 -160 69 -264 131 -343 205 l-33 31 7
-30z"/>
<path d="M13190 11359 c0 -2 9 -29 21 -59 12 -30 22 -62 24 -70 2 -8 9 -37 15
-65 24 -103 35 -249 39 -526 1 -44 4 -49 55 -88 133 -99 300 -289 405 -458 52
-84 141 -265 141 -286 0 -7 4 -17 9 -22 23 -26 99 -295 121 -435 7 -41 14 -83
16 -94 2 -10 6 -51 10 -90 3 -39 7 -89 10 -111 5 -49 5 -371 0 -405 -2 -14 -7
-65 -11 -114 -4 -50 -8 -97 -10 -105 -1 -9 -6 -43 -9 -76 -4 -33 -9 -67 -11
-75 -2 -8 -7 -31 -10 -50 -22 -133 -81 -385 -115 -495 -34 -108 -71 -222 -77
-235 -3 -8 -7 -19 -8 -25 -4 -14 -64 -173 -80 -210 -7 -16 -27 -64 -45 -105
-18 -41 -43 -97 -56 -124 -46 -95 -15 -56 59 76 372 661 583 1266 624 1788 16
213 6 464 -27 654 -14 75 -67 294 -79 321 -5 11 -19 49 -31 85 -130 384 -399
802 -760 1183 -115 122 -220 225 -220 216z"/>
<path d="M10405 11242 c-53 -5 -178 -34 -240 -55 -79 -27 -177 -79 -300 -159
-213 -139 -280 -166 -418 -167 l-69 -1 34 -27 c18 -16 42 -36 53 -46 51 -46
218 -101 305 -100 151 2 300 42 380 102 83 63 118 127 123 231 3 42 10 61 34
89 38 46 116 89 213 118 l75 22 -80 -2 c-44 -1 -93 -3 -110 -5z"/>
<path d="M16134 10355 c18 -224 91 -368 261 -521 62 -55 248 -194 260 -194 2
0 24 -13 47 -29 24 -16 86 -57 138 -91 173 -114 270 -206 350 -328 l48 -74 10
49 c16 71 41 251 44 307 1 38 -2 51 -19 65 -11 9 -54 43 -94 76 -137 112 -212
159 -449 282 -179 93 -174 91 -259 147 -101 68 -210 179 -283 289 l-60 92 6
-70z"/>
<path d="M13002 8810 c0 -14 2 -19 5 -12 2 6 2 18 0 25 -3 6 -5 1 -5 -13z"/>
<path d="M16059 8770 c-6 -106 -4 -152 8 -215 7 -38 16 -77 20 -85 3 -8 7 -17
8 -20 35 -119 170 -277 412 -482 93 -79 161 -144 174 -168 13 -22 26 -40 29
-40 29 0 170 -236 170 -284 0 -28 10 -14 63 85 43 81 97 220 97 251 0 24 -200
217 -301 292 -53 39 -150 108 -215 153 -214 148 -319 261 -413 448 -47 93 -51
98 -52 65z"/>
<path d="M12951 8642 c-24 -75 -48 -144 -52 -152 -4 -8 -27 -60 -49 -115 -157
-380 -456 -841 -786 -1215 -12 -14 -42 -47 -66 -74 -148 -170 -289 -316 -738
-766 -344 -344 -522 -528 -642 -661 -408 -454 -672 -873 -804 -1279 -54 -166
-72 -239 -90 -365 -3 -22 -7 -46 -9 -53 -26 -78 -26 -475 -1 -587 49 -215 160
-337 261 -285 80 41 122 132 151 325 4 28 4 88 0 410 -2 108 4 185 19 284 19
120 56 255 120 431 27 74 118 260 185 376 124 214 298 458 531 739 35 42 213
250 219 255 3 3 32 36 65 75 33 38 67 76 75 85 16 17 130 145 160 180 10 11
46 53 81 92 35 40 82 93 104 118 22 25 43 47 46 50 3 3 64 75 135 160 476 568
720 938 926 1400 27 59 106 280 132 370 41 134 86 340 75 340 -2 0 -24 -62
-48 -138z"/>
<path d="M15713 7168 c-29 -179 30 -387 172 -603 71 -108 202 -269 359 -439
44 -48 95 -108 112 -132 32 -45 92 -161 99 -191 2 -10 10 -38 17 -63 l14 -44
21 59 c12 33 33 104 48 158 l26 98 -55 67 c-30 37 -67 81 -83 98 -122 136
-164 182 -184 205 -267 289 -422 522 -498 752 -18 54 -34 97 -35 97 -2 0 -8
-28 -13 -62z"/>
<path d="M15467 5158 c-29 -61 -51 -146 -63 -243 -15 -112 -9 -366 11 -505 2
-14 7 -47 11 -75 8 -58 7 -55 28 -165 20 -108 32 -164 53 -245 2 -11 8 -36 13
-55 32 -139 148 -492 205 -625 7 -16 27 -64 44 -105 57 -135 56 -134 75 -54
23 94 63 281 70 326 3 21 10 55 15 77 7 32 4 49 -21 107 -16 38 -45 112 -64
164 -19 52 -39 104 -44 115 -28 63 -145 473 -189 660 -25 109 -68 325 -76 380
-3 22 -7 49 -10 60 -5 24 -13 88 -23 175 l-7 65 -28 -57z"/>
</g>
</svg>
